<svg t="1662185847826" class="icon" viewBox="0 0 1024 1024" version="1.1" xmlns="http://www.w3.org/2000/svg" p-id="5259" width="200" height="200"><path d="M710.72 579.2a378.56 378.56 0 0 0-98.88-39.68A248.32 248.32 0 0 0 745.6 320a253.44 253.44 0 0 0-256-249.6 253.44 253.44 0 0 0-256 249.6 249.6 249.6 0 0 0 133.76 218.88c-275.84 70.72-288 375.04-288 378.24l64 2.24c0-13.76 14.4-331.2 348.16-331.2a376.96 376.96 0 0 1 190.4 45.76zM296 320a189.76 189.76 0 0 1 192-185.6 189.44 189.44 0 0 1 192 185.6 189.44 189.44 0 0 1-192 185.6 189.76 189.76 0 0 1-192-185.6zM834.88 566.72l-264.64 262.72-6.4 133.76 130.24-11.2L960 689.28zM665.6 890.24l-34.56 2.88 1.92-35.84 201.92-200.64 32 32z" p-id="5260"></path></svg>
