<svg id="图层_1" data-name="图层 1" xmlns="http://www.w3.org/2000/svg" viewBox="0 0 408.82 272.61"><title>dashboard</title><path d="M405.4,279.24c-1.07,8.41-1.77,16.88-3.3,25.21s-3.81,16.82-6,25.17c-1.47,5.61-4.21,7.52-10.08,7.7-1.2,0-2.39,0-3.59,0H19.66c-10.66,0-11.9-1-14.8-11a202.49,202.49,0,0,1-7.29-77c4.26-42.18,20-79.7,47.46-112,30.3-35.64,68.34-59,114.26-68.1C224,56.36,282.4,71.11,333,113.48c38.48,32.2,61.36,73.81,69.77,123.29,1.13,6.66,1.74,13.41,2.59,20.12ZM100.14,111.53a188.72,188.72,0,0,0-56.66,56.65c1.41.88,2.5,1.6,3.64,2.26,5.63,3.27,11.3,6.46,16.9,9.8,4.14,2.46,5.84,5.78,5.13,9.48-1.16,6-7.27,8.71-13,5.55-7.07-3.88-14-8-21.3-12.21a185.34,185.34,0,0,0-20.66,77.61h3.66c7.32,0,14.64-.09,22,.18a8.2,8.2,0,0,1,7.87,8,8.44,8.44,0,0,1-7,8.45,28.62,28.62,0,0,1-5.16.29c-7,0-14,0-21.22,0,.86,14.69,2.51,28.72,6.61,42.31h361.3c2.1-14,4.2-27.93,6.36-42.31-6.94,0-12.64,0-18.34,0a60.65,60.65,0,0,1-8.75-.31,8.29,8.29,0,0,1-7-8.42,8.39,8.39,0,0,1,7.85-8.09c2.38-.21,4.78-.14,7.18-.14,6.07,0,12.14,0,18.49,0-1.41-27.71-8.11-53.33-20.73-77.61-7.43,4.28-14.29,8.34-21.26,12.21-4.6,2.55-9.61,1.35-11.92-2.56-2.52-4.27-1.27-9.05,3.3-12.05,2.44-1.6,5.05-2.95,7.57-4.43,4.55-2.64,9.08-5.29,13.73-8a189,189,0,0,0-56.72-56.67c-1.17,2-2.19,3.68-3.19,5.39-3.21,5.52-6.27,11.12-9.66,16.52a8.2,8.2,0,0,1-10.83,3.06c-4-2.06-5.63-6.4-3.89-10.85a31.49,31.49,0,0,1,2.17-4.25c3.47-6.08,7-12.14,10.62-18.47a185.5,185.5,0,0,0-77.51-20.68c0,4.72.06,9.21,0,13.68a121.84,121.84,0,0,1-.54,13.12c-.52,4.07-3.83,6.5-7.82,6.59a7.9,7.9,0,0,1-8.27-6.57,35.29,35.29,0,0,1-.49-6.34c-.06-6.74,0-13.48,0-20.48A184.82,184.82,0,0,0,114.93,103l3,5.32c3.12,5.41,6.35,10.77,9.32,16.26,1.76,3.26,1.76,6.7-.69,9.73-2.21,2.73-5.34,4-8.54,2.72a13.23,13.23,0,0,1-5.85-4.9C108,125.49,104.25,118.61,100.14,111.53Z" transform="translate(3.42 -64.72)"/><path d="M184.09,269c0-5.75,2.71-10.06,6.91-13.74q41.52-36.42,83-72.92c4.69-4.12,9.33-8.3,14.09-12.35,4.4-3.74,9.13-3.87,12.52-.53,3.59,3.54,3.45,8.22-.58,12.81q-42.74,48.7-85.55,97.34c-5.5,6.24-12.74,8.06-19.79,5.28A16.82,16.82,0,0,1,184.09,269Z" transform="translate(3.42 -64.72)"/></svg>