<svg clip-rule="evenodd" fill-rule="evenodd" height="512" stroke-linejoin="round" stroke-miterlimit="2" viewBox="0 0 24 24" width="512" xmlns="http://www.w3.org/2000/svg"><g id="Icon"><path d="m10.5 20.263h-7.55c-.053 0-.104-.022-.141-.059-.038-.038-.059-.088-.059-.141 0-.001 0-1.45 0-1.45 0-.831.593-1.563 1.507-2.185 1.632-1.114 4.273-1.816 7.243-1.816.49 0 .971.02 1.441.057.412.033.774-.275.807-.688.032-.413-.276-.774-.689-.807-.508-.041-1.028-.062-1.559-.062-3.322 0-6.263.831-8.089 2.076-1.393.95-2.161 2.157-2.161 3.424v1.451c0 .45.179.883.498 1.202.319.318.751.498 1.202.497 2.016.001 7.55.001 7.55.001.414 0 .75-.337.75-.75 0-.414-.336-.75-.75-.75z"/><path d="m11.5 1.25c-3.036 0-5.5 2.464-5.5 5.5s2.464 5.5 5.5 5.5 5.5-2.464 5.5-5.5-2.464-5.5-5.5-5.5zm0 1.5c2.208 0 4 1.792 4 4s-1.792 4-4 4-4-1.792-4-4 1.792-4 4-4z"/><path d="m18.152 20.208c1.212.182 2.493-.194 3.426-1.127 1.562-1.562 1.562-4.098 0-5.659-1.561-1.562-4.097-1.562-5.659 0-.933.933-1.309 2.214-1.127 3.427 0-.001-2.322 2.321-2.322 2.321-.141.141-.22.332-.22.531v2.299c0 .414.336.75.75.75h2.299c.199 0 .39-.079.531-.22zm-.052-1.54c-.258-.069-.534.005-.723.194l-2.388 2.388h-1.239v-1.239s2.388-2.388 2.388-2.388c.189-.189.263-.465.194-.723-.222-.835-.007-1.763.648-2.418.976-.976 2.561-.976 3.538 0 .976.977.976 2.562 0 3.538-.655.655-1.583.87-2.418.648z"/><path d="m17.982 17.018c-.423-.423-.423-1.11 0-1.533s1.11-.423 1.533 0 .423 1.11 0 1.533-1.11.423-1.533 0z"/></g></svg>