<svg id="图层_1" data-name="图层 1" xmlns="http://www.w3.org/2000/svg" viewBox="0 0 384 384"><defs><style>.cls-1{fill:#fefefe;}.cls-2{fill:#faf2f2;}.cls-3{fill:#6680fe;}.cls-4{fill:#3355fe;}.cls-5{fill:#ebe5f1;}.cls-6{fill:#d2cae3;}.cls-7{fill:#f8f1f2;}.cls-8{fill:#f9f1f2;}.cls-9{fill:#f9f2f2;}.cls-10{fill:#6780fe;}</style></defs><title>log</title><path class="cls-1" d="M392,392H8V8H392ZM35.83,168.82c-.07.74-.2,1.48-.2,2.23,0,38.54-.12,77.08,0,115.62a40.61,40.61,0,0,0,40,40.19c6.61.11,13.21.1,19.82.15q0,11.22,0,22.45c0,16.22,13.53,29.84,29.65,29.84h210.3c15.91,0,29.57-13.65,29.57-29.54q0-129.69,0-259.37a21.27,21.27,0,0,0-.72-3.89c-.55-.67-1-1.38-1.65-2q-31.11-31.14-62.24-62.26c-.61-.6-1.33-1.1-2-1.65a25.26,25.26,0,0,0-4.26-.71q-84.39-.06-168.8,0a30.07,30.07,0,0,0-29.83,30q0,44.92,0,89.85c-12.68,0-25.35-.18-38,0a22.24,22.24,0,0,0-21.68,19.79A80.35,80.35,0,0,0,35.83,168.82Z" transform="translate(-8 -8)"/><path class="cls-2" d="M364.3,86.5a21.27,21.27,0,0,1,.72,3.89q0,129.68,0,259.37c0,15.89-13.66,29.53-29.57,29.54H125.17c-16.12,0-29.63-13.62-29.65-29.84q0-11.22,0-22.45c1.62,0,3.24-.12,4.86-.12H299.51c17.1,0,28.09-11,28.1-28.05q0-42.87,0-85.74c0-17.63-10.83-28.49-28.41-28.49H95.57q0-22.41-.08-44.84,0-44.93,0-89.85a30.07,30.07,0,0,1,29.83-30q84.41,0,168.8,0a25.26,25.26,0,0,1,4.26.71,21,21,0,0,0-.71,3.88c-.05,19.55,0,39.11-.11,58.67,0,3.3.87,4.2,4.17,4.18,19.56-.16,39.11-.06,58.67-.11A21.06,21.06,0,0,0,364.3,86.5ZM200,117.2c19.7,0,39.41.11,59.12-.13a11.63,11.63,0,0,0,7.06-3.11c2.19-2.08,2.13-5.13.51-8-1.72-3-4.4-3.78-7.56-3.78H182.38c-13.6,0-27.2-.15-40.79.14a11.68,11.68,0,0,0-7.06,3.1c-2.2,2.08-2.13,5.14-.51,8s4.15,3.76,7.19,3.76Zm.21,30q29.37,0,58.75,0c5.47,0,8.8-2.88,8.79-7.5s-3.33-7.46-8.84-7.46q-20.2,0-40.41,0c-25.57,0-51.14-.09-76.71.15a12.08,12.08,0,0,0-7.32,3.29,5.39,5.39,0,0,0-.16,7.82c1.82,1.81,4.71,3.52,7.15,3.56C161,147.28,180.58,147.16,200.17,147.16ZM170.09,87.25c9.73,0,19.45,0,29.18,0,5.18,0,8.47-2.89,8.54-7.37s-3.28-7.58-8.7-7.59q-28.8,0-57.61,0c-5.18,0-8.47,2.9-8.54,7.37s3.28,7.58,8.7,7.59C151.14,87.27,160.61,87.25,170.09,87.25Z" transform="translate(-8 -8)"/><path class="cls-3" d="M95.57,184.59H299.2c17.58,0,28.41,10.86,28.41,28.49q0,42.87,0,85.74c0,17.08-11,28.05-28.1,28.05H100.37c-1.62,0-3.24.08-4.86.12-6.61-.05-13.21,0-19.82-.15a40.61,40.61,0,0,1-40-40.19c-.16-38.54-.05-77.08,0-115.62,0-.75.13-1.49.2-2.23a11.25,11.25,0,0,1,1.46,1.89c4.3,9.29,11.58,13.88,21.78,13.89Q77.32,184.62,95.57,184.59Zm185.7,78.64a13.89,13.89,0,0,1-.38,2c-4.15,11-16.51,18.4-27.74,16.54-13.1-2.18-22.49-12.29-22.81-24.87-.26-10.18,4-18.24,12.67-23.5s17.45-5.06,26.38-.48c2.13,1.09,4.62,2.17,6.9,2.09,3.42-.13,5.65-2.61,6.26-6,.72-4-1.47-6.57-4.74-8.51-15.14-9-34.35-7.61-47.54,3.52a41.18,41.18,0,0,0-11.87,47.43c7.25,18,26.69,28.41,46.28,24.71,18.19-3.43,32.67-20.53,32.95-38.92.1-6-2.78-8.93-8.87-8.95q-13.65,0-27.32,0c-5.4,0-8.79,3.05-8.68,7.65s3.4,7.29,8.64,7.31C267.88,263.26,274.36,263.23,281.27,263.23Zm-141.18-7.79.37,0c0,4.24-.1,8.49,0,12.73.4,14.82,12.61,27.52,27.47,28.68C183,298,197.43,287.68,199.45,273c1.31-9.56.89-19.39.82-29.1-.11-15-11.83-27.55-26.9-29.2-14.76-1.62-29.14,8.56-32.06,23.31C140.18,243.64,140.46,249.6,140.09,255.44ZM103,282v-4.46q0-27.15,0-54.29c0-5.23-2.87-8.54-7.33-8.63S88,217.88,88,223.28q0,32.39,0,64.78c0,5.93,2.82,8.83,8.6,8.86q13.85.06,27.7,0c5.22,0,8.52-2.9,8.59-7.37s-3.31-7.57-8.74-7.59C117.33,281.93,110.48,282,103,282Z" transform="translate(-8 -8)"/><path class="cls-4" d="M95.57,184.59q-18.24,0-36.5,0c-10.2,0-17.48-4.6-21.78-13.89a11.25,11.25,0,0,0-1.46-1.89,80.35,80.35,0,0,1,0-9.31,22.24,22.24,0,0,1,21.68-19.79c12.67-.15,25.34,0,38,0Q95.54,162.17,95.57,184.59Z" transform="translate(-8 -8)"/><path class="cls-5" d="M364.3,86.5a21.06,21.06,0,0,1-3.87.72c-19.56,0-39.11,0-58.67.11-3.3,0-4.2-.88-4.17-4.18.15-19.56.06-39.12.11-58.67a21,21,0,0,1,.71-3.88c.67.55,1.39,1,2,1.65q31.13,31.13,62.24,62.26C363.26,85.12,363.75,85.83,364.3,86.5Z" transform="translate(-8 -8)"/><path class="cls-6" d="M200,117.2H141.21c-3,0-5.57-.92-7.19-3.76s-1.69-5.89.51-8a11.68,11.68,0,0,1,7.06-3.1c13.59-.29,27.19-.14,40.79-.14h76.71c3.16,0,5.84.79,7.56,3.78,1.62,2.83,1.68,5.88-.51,8a11.63,11.63,0,0,1-7.06,3.11C239.37,117.31,219.66,117.2,200,117.2Z" transform="translate(-8 -8)"/><path class="cls-6" d="M200.17,147.16c-19.59,0-39.17.12-58.75-.16-2.44,0-5.33-1.75-7.15-3.56a5.39,5.39,0,0,1,.16-7.82,12.08,12.08,0,0,1,7.32-3.29c25.57-.24,51.14-.15,76.71-.15q20.21,0,40.41,0c5.51,0,8.83,2.84,8.84,7.46s-3.32,7.5-8.79,7.5Q229.54,147.18,200.17,147.16Z" transform="translate(-8 -8)"/><path class="cls-6" d="M170.09,87.25c-9.48,0-19,0-28.43,0-5.42,0-8.77-3-8.7-7.59s3.36-7.36,8.54-7.37q28.8,0,57.61,0c5.42,0,8.78,3,8.7,7.59s-3.36,7.36-8.54,7.37C189.54,87.27,179.82,87.25,170.09,87.25Z" transform="translate(-8 -8)"/><path class="cls-7" d="M281.27,263.23c-6.91,0-13.39,0-19.87,0-5.24,0-8.54-2.85-8.64-7.31s3.28-7.63,8.68-7.65q13.67,0,27.32,0c6.09,0,9,3,8.87,8.95-.28,18.39-14.76,35.49-32.95,38.92-19.59,3.7-39-6.68-46.28-24.71A41.18,41.18,0,0,1,230.27,224c13.19-11.13,32.4-12.53,47.54-3.52,3.27,1.94,5.46,4.51,4.74,8.51-.61,3.39-2.84,5.87-6.26,6-2.28.08-4.77-1-6.9-2.09-8.93-4.58-17.81-4.7-26.38.48s-12.93,13.32-12.67,23.5c.32,12.58,9.71,22.69,22.81,24.87,11.23,1.86,23.59-5.5,27.74-16.54A13.89,13.89,0,0,0,281.27,263.23Z" transform="translate(-8 -8)"/><path class="cls-8" d="M140.09,255.44c.37-5.84.09-11.8,1.22-17.48,2.92-14.75,17.3-24.93,32.06-23.31,15.07,1.65,26.79,14.18,26.9,29.2.07,9.71.49,19.54-.82,29.1-2,14.73-16.45,25.09-31.5,23.92-14.86-1.16-27.07-13.86-27.47-28.68-.12-4.24,0-8.49,0-12.73Zm45.27.36c0-3.74.06-7.48,0-11.22a15,15,0,1,0-29.9-.12q-.16,11.22,0,22.44a15,15,0,1,0,29.9.12C185.43,263.28,185.36,259.54,185.36,255.8Z" transform="translate(-8 -8)"/><path class="cls-9" d="M103,282c7.48,0,14.33,0,21.19,0,5.43,0,8.82,3,8.74,7.59s-3.37,7.35-8.59,7.37q-13.84.06-27.7,0c-5.78,0-8.6-2.93-8.6-8.86q0-32.38,0-64.78c0-5.4,3-8.8,7.62-8.71S103,218,103,223.2q0,27.13,0,54.29Z" transform="translate(-8 -8)"/><path class="cls-10" d="M185.36,255.8c0,3.74.07,7.48,0,11.22a15,15,0,1,1-29.9-.12q-.15-11.22,0-22.44a15,15,0,1,1,29.9.12C185.42,248.32,185.36,252.06,185.36,255.8Z" transform="translate(-8 -8)"/></svg>