<svg id="图层_1" data-name="图层 1" xmlns="http://www.w3.org/2000/svg" viewBox="0 0 384 384"><defs><style>.cls-1{fill:#fefefe;}.cls-2{fill:#f1f0f0;}.cls-3{fill:#e53946;}.cls-4{fill:#e0dddc;}.cls-5{fill:#0c4f6c;}.cls-6{fill:#f1eded;}</style></defs><title>log2</title><path class="cls-1" d="M392,392H8V8H392ZM116.48,318.72c0,4.37,0,8.73,0,13.1a24,24,0,0,0,23.64,23.5q96.2.06,192.38,0a24,24,0,0,0,23.54-23.64q0-102,0-204c.74-8.34-2.75-15-8.4-20.7q-27.3-27.42-54.71-54.72c-5.69-5.66-12.36-9.15-20.7-8.41q-66.06,0-132.14,0a23.94,23.94,0,0,0-23.6,23.87q0,42.3,0,84.61c-1,.24-1.93.51-2.91.72-34.84,7.45-57.95,28.25-66.34,62.74C38.76,250.63,50,279.92,78,302.42,89.23,311.42,102.41,316.23,116.48,318.72Z" transform="translate(-8 -8)"/><path class="cls-2" d="M116.48,152.32q0-42.3,0-84.61a23.94,23.94,0,0,1,23.6-23.87q66.07-.06,132.14,0c0,20.08-.06,40.17,0,60.25a24,24,0,0,0,23.58,23.58c20.08.07,40.15,0,60.23,0q0,102,0,204a24,24,0,0,1-23.54,23.64q-96.19.06-192.38,0a24,24,0,0,1-23.64-23.5c0-4.37,0-8.73,0-13.1,8.32-.09,16.81.84,25-.45,45-7.15,75.16-47.26,70.23-92.63C208,192,183,163.08,150.21,154.51A92.63,92.63,0,0,0,116.48,152.32ZM278.13,184.6c9.59,0,19.19,0,28.78,0,6.13,0,10.21-3.67,10.2-9s-4.1-8.94-10.24-9q-28.59,0-57.2,0c-6.23,0-10.28,3.48-10.38,8.8-.1,5.47,4,9.14,10.42,9.16C259.19,184.62,268.66,184.6,278.13,184.6Zm.07,77.88c-9.47,0-18.94,0-28.41,0-6.44,0-10.56,3.6-10.5,9.07s4.12,8.88,10.31,8.88q28.61,0,57.2,0c6.18,0,10.25-3.57,10.31-8.89s-4.09-9.05-10.5-9.06C297.14,262.46,287.67,262.48,278.2,262.48Zm6-30c7.47,0,15,0,22.42,0,6.4,0,10.55-3.65,10.48-9.09s-4.14-8.86-10.32-8.87q-22.62,0-45.23,0c-6.19,0-10.25,3.56-10.29,8.9s4,9,10.14,9.06C269,232.56,276.61,232.53,284.21,232.53ZM206.5,118.7c-5.73,0-11.46,0-17.19,0s-9.87,3.68-9.92,8.89,4,9,9.76,9.06q17.19.09,34.38,0c5.78,0,9.78-3.86,9.73-9.08s-4.07-8.82-9.94-8.87C217.71,118.67,212.11,118.7,206.5,118.7Z" transform="translate(-8 -8)"/><path class="cls-3" d="M116.48,152.32a92.63,92.63,0,0,1,33.73,2.19C183,163.08,208,192,211.66,225.64c4.93,45.37-25.24,85.48-70.23,92.63-8.14,1.29-16.63.36-25,.45-14.07-2.49-27.25-7.3-38.46-16.3-28-22.5-39.26-51.79-30.79-86.64,8.39-34.49,31.5-55.29,66.34-62.74C114.55,152.83,115.51,152.56,116.48,152.32Zm21.4,65.08c0-5.61.11-11.23,0-16.84s-3.3-9.44-8.17-9.92c-5.59-.55-9.83,3.65-9.9,10.08-.1,9.48.08,19-.13,28.44a8.54,8.54,0,0,1-2.14,5.15c-4,4.41-8.48,8.46-12.6,12.8-3.67,3.89-3.57,9.21,0,12.77s7.51,3.44,11.83-.59c5.75-5.36,11.38-10.85,17.19-16.14a11.75,11.75,0,0,0,4-9.28C137.86,228.38,137.89,222.89,137.88,217.4Z" transform="translate(-8 -8)"/><path class="cls-4" d="M356,127.67c-20.08,0-40.15.07-60.23,0a24,24,0,0,1-23.58-23.58c-.06-20.08,0-40.17,0-60.25,8.34-.74,15,2.75,20.7,8.41Q320.35,79.54,347.64,107C353.29,112.65,356.78,119.33,356,127.67Z" transform="translate(-8 -8)"/><path class="cls-5" d="M278.13,184.6c-9.47,0-18.94,0-28.42,0-6.38,0-10.52-3.69-10.42-9.16.1-5.32,4.15-8.8,10.38-8.8q28.61,0,57.2,0c6.14,0,10.23,3.63,10.24,9s-4.07,9-10.2,9C297.32,184.63,287.72,184.6,278.13,184.6Z" transform="translate(-8 -8)"/><path class="cls-5" d="M278.2,262.48c9.47,0,18.94,0,28.41,0,6.41,0,10.56,3.62,10.5,9.06s-4.13,8.89-10.31,8.89q-28.59,0-57.2,0c-6.19,0-10.25-3.55-10.31-8.88s4.06-9.06,10.5-9.07C259.26,262.46,268.73,262.48,278.2,262.48Z" transform="translate(-8 -8)"/><path class="cls-5" d="M284.21,232.53c-7.6,0-15.2,0-22.8,0-6.11,0-10.19-3.72-10.14-9.06s4.1-8.89,10.29-8.9q22.62,0,45.23,0c6.18,0,10.25,3.55,10.32,8.87s-4.08,9.07-10.48,9.09C299.16,232.55,291.68,232.53,284.21,232.53Z" transform="translate(-8 -8)"/><path class="cls-5" d="M206.5,118.7c5.61,0,11.21,0,16.82,0,5.87.05,9.88,3.67,9.94,8.87s-3.95,9-9.73,9.08q-17.19.09-34.38,0c-5.8,0-9.8-3.83-9.76-9.06s4.05-8.84,9.92-8.89S200.77,118.7,206.5,118.7Z" transform="translate(-8 -8)"/><path class="cls-6" d="M137.88,217.4c0,5.49,0,11,0,16.47a11.75,11.75,0,0,1-4,9.28c-5.81,5.29-11.44,10.78-17.19,16.14-4.32,4-8.23,4.18-11.83.59s-3.66-8.88,0-12.77c4.12-4.34,8.56-8.39,12.6-12.8a8.54,8.54,0,0,0,2.14-5.15c.21-9.47,0-19,.13-28.44.07-6.43,4.31-10.63,9.9-10.08,4.87.48,8,4.17,8.17,9.92S137.88,211.79,137.88,217.4Z" transform="translate(-8 -8)"/></svg>