<svg id="图层_1" data-name="图层 1" xmlns="http://www.w3.org/2000/svg" viewBox="0 0 359.29 359.29"><defs><style>.cls-1{fill:#526273;}.cls-2{fill:#495766;}.cls-3{fill:#868f9a;}.cls-4{fill:#769acc;}</style></defs><title>system</title><path class="cls-1" d="M183,282.21c-8.18-3.25-16.43-6.33-24.49-9.85-2.13-.94-3.21-.86-4.74.74-3.76,4-7.7,7.79-11.29,11.39L117,259c3.5-3.48,7.63-7.43,11.56-11.57a3.94,3.94,0,0,0,.92-3.35c-3.62-8.4-7.46-16.71-11.52-25.69H99.54V182.48h18.37c4.14-9.07,8-17.47,11.73-26,.35-.81-.42-2.53-1.18-3.32-3.87-4-7.92-7.91-11.79-11.73L142.32,116c3.54,3.57,7.52,7.44,11.31,11.48,1.61,1.73,2.76,1.9,5,.8,7.8-3.77,15.81-7.12,24.37-10.9V98.86h36v18.35c9,4.06,17.21,7.83,25.52,11.37a4.15,4.15,0,0,0,3.65-.77c4.05-3.85,7.89-7.94,11.65-11.78l25.39,25.7c-3.44,3.42-7.33,7.43-11.39,11.27-1.62,1.54-1.67,2.64-.71,4.75,3.3,7.21,6.32,14.56,9.12,22,.73,1.93,1.4,3,3.49,2.79-4.81,9.64-9.07,19.6-14.53,28.85-10.05,17-23.41,31.41-39,43.49-10.6,8.2-21.89,15.45-34.38,20.6C192.78,277.54,187.93,280,183,282.21Zm-35.77-82a53.89,53.89,0,1,0,54.25-53.71A54,54,0,0,0,147.23,200.19Z" transform="translate(-21.48 -20.73)"/><path class="cls-2" d="M183,282.21c4.93-2.25,9.78-4.67,14.79-6.74,12.49-5.15,23.78-12.4,34.38-20.6,15.61-12.08,29-26.45,39-43.49,5.46-9.25,9.72-19.21,14.53-28.85h17v35.75H284l-11.49,27.87L285.86,259l-25.69,25.68L247.42,271.6l-28.24,11.63v18.71H183Z" transform="translate(-21.48 -20.73)"/><path class="cls-3" d="M51,170.41l-11.77-2.29c11.4-52.7,40.68-91.52,87.5-117.73-2-4.12-4-8.1-6.17-12.57h41.58L138.48,73.41c-2.19-4.17-4.16-7.93-6.38-12.18C88.51,85.6,61.54,121.74,51,170.41Z" transform="translate(-21.48 -20.73)"/><path class="cls-3" d="M351.21,232.09,363,234.32c-11.33,52.62-40.54,91.56-87.4,117.76l6,12.59H240.1l23.67-35.53,6.43,12.13C313.62,317,340.53,280.9,351.21,232.09Z" transform="translate(-21.48 -20.73)"/><path class="cls-3" d="M63.07,272.55c24.23,43.38,60.28,70.31,109.07,81l-2.07,11.79C117.38,354,78.41,324.8,52.23,277.86l-6.14,3c-2,1-4,2-6.37,3.12V242.46l35.54,23.68Z" transform="translate(-21.48 -20.73)"/><path class="cls-3" d="M230,49c.79-4.2,1.47-7.84,2.24-11.93C284.81,48.53,323.81,77.58,350,124.67l12.54-6.15V160L327,136.32,339,130.17a153.89,153.89,0,0,0-45.23-53A156.47,156.47,0,0,0,230,49Z" transform="translate(-21.48 -20.73)"/><path class="cls-4" d="M219.08,38.85a18,18,0,1,1-17.6-18.12A18.08,18.08,0,0,1,219.08,38.85Z" transform="translate(-21.48 -20.73)"/><path class="cls-4" d="M39.53,218.34A18,18,0,1,1,57.4,200.47,18.07,18.07,0,0,1,39.53,218.34Z" transform="translate(-21.48 -20.73)"/><path class="cls-4" d="M362.7,218.34a18,18,0,1,1,18.07-17.68A18.08,18.08,0,0,1,362.7,218.34Z" transform="translate(-21.48 -20.73)"/><path class="cls-4" d="M201.19,344.1a18,18,0,1,1-18,17.7A18,18,0,0,1,201.19,344.1Z" transform="translate(-21.48 -20.73)"/></svg>